<svg width="2149" height="343" viewBox="0 0 2149 343" fill="none" xmlns="http://www.w3.org/2000/svg">
<path d="M0.574951 94.5914H34.9666V153.382H96.5461V94.5914H130.705V249.354H96.5461V185.45H34.9666V249.354H0.574951V94.5914Z" fill="#156D00"/>
<path d="M345.486 249.354H309.7L299.94 218.215H245.099L235.572 249.354H199.554L253.232 94.5914H292.039L345.486 249.354ZM272.287 131.074L253.697 191.027H291.342L272.287 131.074Z" fill="#156D00"/>
<path d="M475.913 194.048H448.726V249.354H414.334V94.5914H485.906C516.812 94.5914 537.493 112.484 537.493 139.672C537.493 158.495 526.804 172.67 509.608 178.711C525.177 182.662 531.916 192.422 534.24 212.871L538.423 249.354H504.96L500.778 216.124C499.151 201.019 492.18 194.048 475.913 194.048ZM480.561 123.638H448.726V165.234H480.561C494.968 165.234 503.566 157.798 503.566 144.552C503.566 131.307 494.968 123.638 480.561 123.638Z" fill="#156D00"/>
<path d="M973.958 94.5914V126.892H897.971V154.777H967.219V186.845H897.971V217.286H973.958V249.354H863.579V94.5914H973.958Z" fill="#156D00"/>
<path d="M1113.22 189.633L1089.05 187.077C1059.07 184.056 1042.57 167.557 1042.57 139.905C1042.57 110.858 1065.81 92.5 1102.99 92.5C1138.78 92.5 1162.48 111.09 1165.5 141.299H1130.88C1128.32 126.659 1119.49 119.688 1102.53 119.688C1087.19 119.688 1077.2 126.892 1077.2 138.046C1077.2 146.876 1083.24 151.523 1095.32 153.15L1117.4 155.474C1151.79 159.192 1168.29 174.993 1168.29 204.04C1168.29 232.623 1144.59 251.213 1108.57 251.213C1069.99 251.213 1044.9 232.158 1041.41 201.484H1076.5C1079.06 216.589 1089.51 223.792 1108.8 223.792C1123.91 223.792 1133.9 216.356 1133.9 204.97C1133.9 196.14 1126.93 191.027 1113.22 189.633Z" fill="#156D00"/>
<path d="M1346.59 94.5914V126.892H1303.83V249.354H1269.9V126.892H1226.91V94.5914H1346.59Z" fill="#156D00"/>
<path d="M1401.74 171.74C1401.74 124.103 1428.93 92.5 1470.06 92.5C1507.01 92.5 1533.97 113.414 1536.52 148.27H1512.82C1511.89 127.124 1495.39 113.879 1470.29 113.879C1441.94 113.879 1425.21 135.025 1425.21 171.74C1425.21 208.688 1441.94 230.066 1470.29 230.066C1494.93 230.066 1511.66 216.821 1512.82 195.442H1536.52C1533.97 230.996 1506.78 251.445 1470.06 251.445C1429.16 251.445 1401.74 219.61 1401.74 171.74Z" fill="#FFD000"/>
<path d="M1734.34 249.586H1709.71L1696.46 211.709H1634.18L1621.17 249.586H1596.31L1652.31 94.8238H1678.57L1734.34 249.586ZM1664.86 120.85L1640.69 192.189H1689.72L1664.86 120.85Z" fill="#FFD000"/>
<path d="M1899.85 249.586H1805.51V94.8238H1828.52V227.975H1899.85V249.586Z" fill="#FFD000"/>
<path d="M1962.66 171.74C1962.66 124.103 1989.85 92.5 2030.98 92.5C2067.93 92.5 2094.88 113.414 2097.44 148.27H2073.74C2072.81 127.124 2056.31 113.879 2031.21 113.879C2002.86 113.879 1986.13 135.025 1986.13 171.74C1986.13 208.688 2002.86 230.066 2031.21 230.066C2055.84 230.066 2072.58 216.821 2073.74 195.442H2097.44C2094.88 230.996 2067.7 251.445 2030.98 251.445C1990.08 251.445 1962.66 219.61 1962.66 171.74Z" fill="#FFD000"/>
<path d="M692.315 11.3594C696.619 5.66315 705.176 5.66315 709.479 11.3594L735.772 46.1615C738.959 50.3796 738.608 56.2883 734.944 60.0994L708.651 87.4494C704.419 91.8516 697.375 91.8516 693.143 87.4494L666.85 60.0994C663.187 56.2883 662.835 50.3796 666.022 46.1615L692.315 11.3594Z" fill="#FFD000"/>
<path d="M787.147 52.4755L714.183 125.44C712.102 127.521 710.932 130.344 710.932 133.288V195.639C710.932 205.476 722.783 210.45 729.804 203.56L802.769 131.953C804.895 129.866 806.093 127.012 806.093 124.032V60.3231C806.093 50.4357 794.139 45.4841 787.147 52.4755Z" fill="#156D00"/>
<path d="M766.187 149.234L757.923 157.263V142.623L743.047 156.436V148.054L757.923 133.886V119.364L766.187 111.689V126.093L780.946 112.398V120.662L766.187 134.594V149.234Z" fill="#FFD000"/>
<path d="M614.764 172.431L687.729 245.395C689.81 247.476 690.979 250.299 690.979 253.243V315.594C690.979 325.431 679.129 330.405 672.108 323.515L599.143 251.908C597.017 249.821 595.819 246.967 595.819 243.988V180.278C595.819 170.391 607.773 165.439 614.764 172.431Z" fill="#156D00"/>
<path d="M654.143 254.195L648.24 242.86L637.968 243.923L627.342 224.088L621.439 224.678L631.828 244.395L621.439 245.458L627.342 256.674L637.732 255.729L648.24 275.446L654.143 274.974L643.871 255.021L654.143 254.195Z" fill="#FFD000"/>
<path d="M614.764 52.4755L687.729 125.44C689.81 127.521 690.979 130.344 690.979 133.288V195.639C690.979 205.476 679.129 210.45 672.108 203.56L599.143 131.953C597.017 129.866 595.819 127.012 595.819 124.032V60.3231C595.819 50.4357 607.773 45.4841 614.764 52.4755Z" fill="#156D00"/>
<path d="M621.32 121.135V112.516L659.101 148.644V157.145L621.32 121.135Z" fill="#FFD000"/>
<path d="M787.147 172.431L714.183 245.395C712.102 247.476 710.932 250.299 710.932 253.243V315.594C710.932 325.431 722.783 330.405 729.804 323.515L802.769 251.908C804.895 249.821 806.093 246.967 806.093 243.988V180.278C806.093 170.391 794.139 165.439 787.147 172.431Z" fill="#156D00"/>
<path d="M782.362 230.11V221.491L744.581 257.619V266.12L782.362 230.11Z" fill="#FFD000"/>
<path d="M782.362 245.694V237.075L744.581 273.203V281.704L782.362 245.694Z" fill="#FFD000"/>
<path d="M2116.86 64.3635V67.8867H2109.55V89.3252H2105.84V67.8867H2098.57V64.3635H2116.86ZM2134.55 89.3252H2131.1L2123.72 69.5733V89.3252H2120.01V64.3635H2125.41L2132.87 84.1155L2140.14 64.3635H2145.68V89.3252H2141.97V69.5733L2134.55 89.3252Z" fill="black"/>
</svg>
