<svg width="1065" height="1733" viewBox="0 0 1065 1733" fill="none" xmlns="http://www.w3.org/2000/svg">
<path d="M517.891 19.5575C525.069 10.0568 539.341 10.0568 546.518 19.5575L727.631 259.285C732.947 266.32 732.361 276.175 726.25 282.532L545.137 470.927C538.079 478.269 526.331 478.269 519.272 470.927L338.159 282.532C332.048 276.175 331.463 266.32 336.778 259.285L517.891 19.5575Z" fill="#FFD000"/>
<path d="M969.049 266.396L599.496 635.949C588.955 646.49 583.033 660.788 583.033 675.696V991.495C583.033 1041.32 643.055 1066.51 678.615 1031.61L1048.17 668.938C1058.94 658.368 1065.01 643.91 1065.01 628.819V306.142C1065.01 256.064 1004.46 230.985 969.049 266.396Z" fill="#156D00"/>
<path d="M862.889 756.462L821.03 797.124V722.975L745.684 792.939V750.482L821.03 678.724V605.172L862.889 566.303V639.257L937.637 569.891V611.75L862.889 682.312V756.462Z" fill="#FFD000"/>
<path d="M95.9572 873.946L465.51 1243.5C476.052 1254.04 481.974 1268.34 481.974 1283.25V1599.05C481.974 1648.87 421.952 1674.06 386.392 1639.16L16.8387 1276.49C6.06799 1265.92 -3.05176e-05 1251.46 -3.05176e-05 1236.37V913.693C-3.05176e-05 863.615 60.5466 838.535 95.9572 873.946Z" fill="#156D00"/>
<path d="M295.403 1288.07L265.504 1230.66L213.48 1236.04L159.661 1135.58L129.762 1138.57L182.385 1238.44L129.762 1243.82L159.661 1300.63L212.284 1295.84L265.504 1395.7L295.403 1393.31L243.379 1292.25L295.403 1288.07Z" fill="#FFD000"/>
<path d="M95.9572 266.396L465.51 635.949C476.052 646.49 481.974 660.788 481.974 675.696V991.495C481.974 1041.32 421.952 1066.51 386.392 1031.61L16.8387 668.938C6.06799 658.368 -3.05176e-05 643.91 -3.05176e-05 628.819V306.142C-3.05176e-05 256.064 60.5466 230.985 95.9572 266.396Z" fill="#156D00"/>
<path d="M129.164 614.142V570.489L320.519 753.472V796.526L129.164 614.142Z" fill="#FFD000"/>
<path d="M969.049 873.946L599.496 1243.5C588.955 1254.04 583.033 1268.34 583.033 1283.25V1599.05C583.033 1648.87 643.055 1674.06 678.615 1639.16L1048.17 1276.49C1058.94 1265.92 1065.01 1251.46 1065.01 1236.37V913.693C1065.01 863.615 1004.46 838.535 969.049 873.946Z" fill="#156D00"/>
<path d="M944.812 1166.08V1122.43L753.458 1305.41V1348.46L944.812 1166.08Z" fill="#FFD000"/>
<path d="M944.812 1245.01V1201.36L753.458 1384.34V1427.4L944.812 1245.01Z" fill="#FFD000"/>
</svg>
